<mxfile host="app.diagrams.net" modified="2023-08-29T03:54:38.972Z" agent="Mozilla/5.0 (Windows NT 10.0; Win64; x64) AppleWebKit/537.36 (KHTML, like Gecko) Chrome/116.0.0.0 Safari/537.36" etag="N87F2C7d5atUqv-EyHVj" version="21.6.9" type="github">
  <diagram name="Page-1" id="gCQwZEJOwmfwTWuZdBzD">
    <mxGraphModel dx="954" dy="578" grid="1" gridSize="10" guides="1" tooltips="1" connect="1" arrows="1" fold="1" page="1" pageScale="1" pageWidth="827" pageHeight="1169" math="0" shadow="0">
      <root>
        <mxCell id="0" />
        <mxCell id="1" parent="0" />
        <mxCell id="x9Nsne9oqfJ8dIh2SCm_-1" value="" style="rounded=0;whiteSpace=wrap;html=1;" vertex="1" parent="1">
          <mxGeometry x="320" y="100" width="230" height="370" as="geometry" />
        </mxCell>
        <mxCell id="x9Nsne9oqfJ8dIh2SCm_-2" value="" style="ellipse;whiteSpace=wrap;html=1;" vertex="1" parent="1">
          <mxGeometry x="375" y="170" width="120" height="70" as="geometry" />
        </mxCell>
        <mxCell id="x9Nsne9oqfJ8dIh2SCm_-3" value="GAME TEBAK ANGKA" style="text;html=1;strokeColor=none;fillColor=none;align=center;verticalAlign=middle;whiteSpace=wrap;rounded=0;" vertex="1" parent="1">
          <mxGeometry x="370" y="110" width="130" height="30" as="geometry" />
        </mxCell>
        <mxCell id="x9Nsne9oqfJ8dIh2SCm_-4" value="" style="ellipse;whiteSpace=wrap;html=1;" vertex="1" parent="1">
          <mxGeometry x="375" y="260" width="120" height="80" as="geometry" />
        </mxCell>
        <mxCell id="x9Nsne9oqfJ8dIh2SCm_-5" value="" style="ellipse;whiteSpace=wrap;html=1;" vertex="1" parent="1">
          <mxGeometry x="380" y="360" width="120" height="80" as="geometry" />
        </mxCell>
        <mxCell id="x9Nsne9oqfJ8dIh2SCm_-6" value="Actor" style="shape=umlActor;verticalLabelPosition=bottom;verticalAlign=top;html=1;outlineConnect=0;" vertex="1" parent="1">
          <mxGeometry x="180" y="235" width="60" height="130" as="geometry" />
        </mxCell>
        <mxCell id="x9Nsne9oqfJ8dIh2SCm_-7" value="Actor" style="shape=umlActor;verticalLabelPosition=bottom;verticalAlign=top;html=1;outlineConnect=0;" vertex="1" parent="1">
          <mxGeometry x="630" y="225" width="60" height="140" as="geometry" />
        </mxCell>
        <mxCell id="x9Nsne9oqfJ8dIh2SCm_-13" value="RANDOM ANGKA" style="text;html=1;strokeColor=none;fillColor=none;align=center;verticalAlign=middle;whiteSpace=wrap;rounded=0;" vertex="1" parent="1">
          <mxGeometry x="385" y="190" width="100" height="30" as="geometry" />
        </mxCell>
        <mxCell id="x9Nsne9oqfJ8dIh2SCm_-15" value="CEK ANGKA" style="text;html=1;strokeColor=none;fillColor=none;align=center;verticalAlign=middle;whiteSpace=wrap;rounded=0;" vertex="1" parent="1">
          <mxGeometry x="390" y="285" width="90" height="30" as="geometry" />
        </mxCell>
        <mxCell id="x9Nsne9oqfJ8dIh2SCm_-16" value="MENEBAK ANGKA" style="text;html=1;strokeColor=none;fillColor=none;align=center;verticalAlign=middle;whiteSpace=wrap;rounded=0;" vertex="1" parent="1">
          <mxGeometry x="375" y="385" width="130" height="30" as="geometry" />
        </mxCell>
        <mxCell id="x9Nsne9oqfJ8dIh2SCm_-18" value="" style="endArrow=classic;html=1;rounded=0;" edge="1" parent="1">
          <mxGeometry width="50" height="50" relative="1" as="geometry">
            <mxPoint x="640" y="310" as="sourcePoint" />
            <mxPoint x="520" y="380" as="targetPoint" />
            <Array as="points">
              <mxPoint x="520" y="380" />
            </Array>
          </mxGeometry>
        </mxCell>
        <mxCell id="x9Nsne9oqfJ8dIh2SCm_-20" value="" style="endArrow=classic;html=1;rounded=0;" edge="1" parent="1">
          <mxGeometry width="50" height="50" relative="1" as="geometry">
            <mxPoint x="260" y="280" as="sourcePoint" />
            <mxPoint x="370" y="210" as="targetPoint" />
          </mxGeometry>
        </mxCell>
        <mxCell id="x9Nsne9oqfJ8dIh2SCm_-26" value="" style="endArrow=classic;html=1;rounded=0;" edge="1" parent="1">
          <mxGeometry width="50" height="50" relative="1" as="geometry">
            <mxPoint x="260" y="280" as="sourcePoint" />
            <mxPoint x="370" y="280" as="targetPoint" />
            <Array as="points">
              <mxPoint x="350" y="280" />
            </Array>
          </mxGeometry>
        </mxCell>
      </root>
    </mxGraphModel>
  </diagram>
</mxfile>
